# xmcd
#
# Track frame offsets: 
#        150
#        17175
#        33080
#        49367
#        66800
#        80955
#        97492
#        114537
#        131172
#        150457
#        162962
#
# Disc length: 2449 seconds
#
# Revision: 2
# Processed by: cddbd v1.5PL3 Copyright (c) Steve Scherf et al.
# Submitted via: ExactAudioCopy v0.95a3
#
DISCID=99098f0b
DTITLE=Ty Herndon - Big Hopes
DYEAR=1998
DGENRE=
TTITLE0=Big Hopes
TTITLE1=It Must Be Love
TTITLE2=A Man Holdin' On (To A Woman Lettin' Go)
TTITLE3=Big Time Dreamer
TTITLE4=Thinkin' Again With My Heart
TTITLE5=Somewhere My Lover
TTITLE6=Hands Of A Working Man
TTITLE7=How Much Can One Man Love You
TTITLE8=The Only Way I Know
TTITLE9=No Brakes
TTITLE10=Tears In God's Eyes
EXTD=Shellimark Entertainment -Mobile DJ's\nMarc Taylor\n\nShellimark@
EXTD=hotmail.com
EXTT0=
EXTT1=
EXTT2=
EXTT3=
EXTT4=
EXTT5=
EXTT6=
EXTT7=
EXTT8=
EXTT9=
EXTT10=
PLAYORDER=
